<svg id="Calque_1" data-name="Calque 1" xmlns="http://www.w3.org/2000/svg" viewBox="0 0 85.3 78.69"><path d="M510.18,505l-.37-.13a13.15,13.15,0,0,0,4.75-4,11.46,11.46,0,0,0-2.79-16q-4.87-3.64-15.13-3.64H470.2v49.49h27.85q10.26,0,15.59-3.61a11.45,11.45,0,0,0,5.34-10,12,12,0,0,0-2.3-7.39A14.35,14.35,0,0,0,510.18,505Zm-15.8-12.09a7.31,7.31,0,0,1,4.13.92,3.52,3.52,0,0,1,0,5.48,7,7,0,0,1-4.13,1H486.6v-7.36Zm6.39,25.17a7,7,0,0,1-4.13,1h-10v-7.77h10a7.13,7.13,0,0,1,4.13,1,3.74,3.74,0,0,1,0,5.8Z" transform="translate(-470.2 -481.23)" fill="#132318"/><path d="M540.12,544.89a11.71,11.71,0,0,1-6,1.52,12.78,12.78,0,0,1-4.74-.84,10,10,0,0,1-3.64-2.48,11.59,11.59,0,0,1-2.37-3.92,15.88,15.88,0,0,1,0-10.25,11.73,11.73,0,0,1,2.37-3.93,10,10,0,0,1,3.64-2.47,12.58,12.58,0,0,1,4.74-.85,11.81,11.81,0,0,1,6,1.52,17.12,17.12,0,0,1,4.85,4.28l10.53-9.41a24,24,0,0,0-9.3-7.35,33.66,33.66,0,0,0-23.89-.67,25.94,25.94,0,0,0-8.77,5.34,24.36,24.36,0,0,0-5.76,8.2,27.74,27.74,0,0,0,0,20.93,24.46,24.46,0,0,0,5.76,8.2,25.76,25.76,0,0,0,8.77,5.33,31.35,31.35,0,0,0,11,1.88,30.6,30.6,0,0,0,12.9-2.58,24.48,24.48,0,0,0,9.3-7.32L545,540.62A17.24,17.24,0,0,1,540.12,544.89Z" transform="translate(-470.2 -481.23)" fill="#132318"/></svg>