<svg width="40" height="40" viewBox="0 0 40 40" fill="none" xmlns="http://www.w3.org/2000/svg">
<path d="M17.1429 22.8571H2.85715C2.04763 22.8571 1.36953 22.5829 0.822867 22.0343C0.276201 21.4857 0.00191461 20.8076 9.8522e-06 20C-0.00189491 19.1924 0.272391 18.5143 0.822867 17.9657C1.37334 17.4171 2.05144 17.1429 2.85715 17.1429H17.1429V2.85715C17.1429 2.04763 17.4171 1.36953 17.9657 0.822867C18.5143 0.276201 19.1924 0.00191461 20 9.8522e-06C20.8076 -0.00189491 21.4867 0.272391 22.0371 0.822867C22.5876 1.37334 22.861 2.05144 22.8571 2.85715V17.1429H37.1429C37.9524 17.1429 38.6314 17.4171 39.18 17.9657C39.7286 18.5143 40.0019 19.1924 40 20C39.9981 20.8076 39.7238 21.4867 39.1771 22.0371C38.6305 22.5876 37.9524 22.861 37.1429 22.8571H22.8571V37.1429C22.8571 37.9524 22.5829 38.6314 22.0343 39.18C21.4857 39.7286 20.8076 40.0019 20 40C19.1924 39.9981 18.5143 39.7238 17.9657 39.1771C17.4171 38.6305 17.1429 37.9524 17.1429 37.1429V22.8571Z" fill="black"/>
</svg>
