<svg id="Calque_1" data-name="Calque 1" xmlns="http://www.w3.org/2000/svg" viewBox="0 0 800 817.07"><path d="M666.17,356.58h34.21c26.42,0,52.84-.27,79.25.11,81.71,1.16,145,64.67,146.17,146.51.11,8.44.16,17.05-1.34,25.3a36.82,36.82,0,0,1-34.79,30.38c-13.67.65-27.39,0-41.08.37-57.75,1.56-95.82,54.5-76.94,106.8,10.76,29.79,42,51.77,75.7,52.94,12.7.44,25.43,0,38.15.24,23,.44,39.21,16.29,40.34,39.29,4,81.88-61.68,153-143.94,153.8-94.24.93-188.5.3-282.75.19-18.68,0-28.13-14.46-21-32.28,12.77-31.87,19.69-64.55,17.89-99.16-5-96-82-181.91-177-197.1-34.42-5.5-68.35-4.14-101.33,7.29-16.9,5.86-33.85-3.35-33.52-24.7,1.05-67.5.34-135,.4-202.55,0-52.36,26.72-91.05,75.67-109.59q150.69-57.1,301.45-114c54.16-20.45,104.3,14,104.45,71.7C666.27,259.72,666.17,307.33,666.17,356.58Zm-59.2,0c.32-2.7.61-4,.61-5.27,0-47,.13-93.95,0-140.92,0-14.28-9.55-20.92-22.87-15.91Q430.2,252.58,275.91,311.22c-7.84,3-15.19,9.11-20.89,15.45-14.93,16.6-12.23,37.12-11.38,58.16,2.11-1.1,3.26-1.54,4.24-2.22,26.64-18.4,56.2-26.26,88.48-26.14,86.1.32,172.2.11,258.31.11ZM535.89,551.32v0c31.29,0,62.58.07,93.87,0,19.36-.06,32.36-11.74,32.46-28.84s-12.86-29.31-32-29.35q-94.86-.18-189.71.07a37.49,37.49,0,0,0-14.21,2.67c-13,5.58-19.6,19.19-16.64,33,2.72,12.66,14.36,22.28,28.44,22.4C470.69,551.5,503.29,551.32,535.89,551.32Z" transform="translate(-126.09 -134.46)"/><path d="M437.9,795c0,86.37-69.85,156.47-155.85,156.53-85.14.06-155.94-70-156-154.45,0-87.58,69.18-157.91,155.32-157.83C368.05,639.34,438,708.91,437.9,795Zm-185-28.51c-7.14,0-12.95-.14-18.76,0-5.51.18-11.14.1-16.49,1.21a28.88,28.88,0,0,0,3.74,57.15c10.23.63,20.54.12,31.41.12,0,4.69,0,7.91,0,11.12,0,5.54-.25,11.09-.08,16.62.54,16.67,13.12,29.43,29,29.57s28.93-12.36,29.77-29c.46-9.25.08-18.54.08-28.16,9.65,0,17.75.06,25.86,0,18.69-.15,32.19-12.49,32.26-29.42s-13.45-29-32.41-29.26c-8.35-.09-16.7,0-25.9,0,0-10.7.3-20.09-.06-29.46-.68-17.49-13.33-30-29.69-29.88s-28.45,12.78-28.7,30.52C252.78,746.76,252.89,755.84,252.89,766.5Z" transform="translate(-126.09 -134.46)"/><path d="M876,678.11c-9.78,0-19.59.41-29.34-.09-21.88-1.12-38.16-18.29-37.9-39.43.25-20.85,16.34-37.48,38-38.14,19.22-.58,38.48-.42,57.71,0,13.77.27,21.1,7.8,21.45,21.41q.45,17.59,0,35.22c-.37,13.66-7.82,20.78-21.51,21.23-.65,0-1.31,0-2,0H876Z" transform="translate(-126.09 -134.46)"/></svg>