<svg width="130" height="117" viewBox="0 0 130 117" fill="none" xmlns="http://www.w3.org/2000/svg">
<path fill-rule="evenodd" clip-rule="evenodd" d="M84.2021 0C87.6377 0 90.9327 1.36481 93.3621 3.79419C95.7914 6.22356 97.1562 9.51851 97.1562 12.9542V38.8625H110.11C113.546 38.8625 116.841 40.2273 119.27 42.6567C121.7 45.0861 123.065 48.381 123.065 51.8167V103.633C124.782 103.633 126.43 104.316 127.645 105.53C128.859 106.745 129.542 108.393 129.542 110.11C129.542 111.828 128.859 113.476 127.645 114.69C126.43 115.905 124.782 116.587 123.065 116.587H6.47708C4.75925 116.587 3.11178 115.905 1.89709 114.69C0.682405 113.476 0 111.828 0 110.11C0 108.393 0.682405 106.745 1.89709 105.53C3.11178 104.316 4.75925 103.633 6.47708 103.633V38.8625C6.47708 35.4268 7.84189 32.1319 10.2713 29.7025C12.7006 27.2731 15.9956 25.9083 19.4312 25.9083H32.3854V12.9542C32.3854 9.51851 33.7502 6.22356 36.1796 3.79419C38.609 1.36481 41.9039 0 45.3396 0H84.2021ZM32.3854 38.8625H19.4312V103.633H32.3854V38.8625ZM110.11 51.8167H97.1562V103.633H110.11V51.8167ZM71.2479 77.725H58.2937V90.6792H71.2479V77.725ZM71.2479 51.8167H58.2937V64.7708H71.2479V51.8167ZM71.2479 25.9083H58.2937V38.8625H71.2479V25.9083Z" fill="black"/>
</svg>
