<svg width="43" height="40" viewBox="0 0 43 40" fill="none" xmlns="http://www.w3.org/2000/svg">
<path d="M2.15 35.746H4.3V8.86077C4.30006 8.19106 4.51315 7.53835 4.90906 6.99512C5.30497 6.45189 5.86364 6.04568 6.5059 5.83406L23.7059 0.163484C24.1906 0.00376134 24.7068 -0.0397388 25.2119 0.0365658C25.7169 0.11287 26.1964 0.306797 26.6109 0.602369C27.0253 0.897941 27.3629 1.2867 27.5957 1.73662C27.8285 2.18654 27.95 2.68475 27.95 3.1902V35.746H30.1V16.5818C30.1001 16.4245 30.1355 16.2692 30.2035 16.127C30.2716 15.9849 30.3707 15.8595 30.4937 15.7598C30.6166 15.6601 30.7604 15.5887 30.9147 15.5506C31.0689 15.5125 31.2298 15.5087 31.3857 15.5395L36.1071 16.4754C36.8379 16.6199 37.4956 17.0104 37.9683 17.5804C38.441 18.1504 38.6996 18.8648 38.7 19.6021V35.746H40.85C41.4202 35.746 41.9671 35.9701 42.3703 36.369C42.7735 36.7679 43 37.3089 43 37.873C43 38.4371 42.7735 38.9781 42.3703 39.377C41.9671 39.7759 41.4202 40 40.85 40H2.15C1.57978 40 1.03292 39.7759 0.62972 39.377C0.226517 38.9781 0 38.4371 0 37.873C0 37.3089 0.226517 36.7679 0.62972 36.369C1.03292 35.9701 1.57978 35.746 2.15 35.746Z" fill="black"/>
</svg>
