<svg width="20" height="20" viewBox="0 0 20 20" fill="none" xmlns="http://www.w3.org/2000/svg">
<path fill-rule="evenodd" clip-rule="evenodd" d="M1.464 1.464C0 2.93 0 5.286 0 10C0 14.714 0 17.071 1.464 18.535C2.93 20 5.286 20 10 20C14.714 20 17.071 20 18.535 18.535C20 17.072 20 14.714 20 10C20 5.286 20 2.929 18.535 1.464C17.072 0 14.714 0 10 0C5.286 0 2.929 0 1.464 1.464ZM5.53 7.47C5.38783 7.33752 5.19978 7.2654 5.00548 7.26882C4.81118 7.27225 4.62579 7.35097 4.48838 7.48838C4.35097 7.62579 4.27225 7.81118 4.26883 8.00548C4.2654 8.19978 4.33752 8.38782 4.47 8.53L6.763 10.823C7.09115 11.1509 7.53609 11.3351 8 11.3351C8.46391 11.3351 8.90885 11.1509 9.237 10.823L10.823 9.237C10.8462 9.21372 10.8738 9.19525 10.9042 9.18264C10.9346 9.17004 10.9671 9.16355 11 9.16355C11.0329 9.16355 11.0654 9.17004 11.0958 9.18264C11.1262 9.19525 11.1538 9.21372 11.177 9.237L13.189 11.25H12.5C12.3011 11.25 12.1103 11.329 11.9697 11.4697C11.829 11.6103 11.75 11.8011 11.75 12C11.75 12.1989 11.829 12.3897 11.9697 12.5303C12.1103 12.671 12.3011 12.75 12.5 12.75H15C15.1989 12.75 15.3897 12.671 15.5303 12.5303C15.671 12.3897 15.75 12.1989 15.75 12V9.5C15.75 9.30109 15.671 9.11032 15.5303 8.96967C15.3897 8.82902 15.1989 8.75 15 8.75C14.8011 8.75 14.6103 8.82902 14.4697 8.96967C14.329 9.11032 14.25 9.30109 14.25 9.5V10.19L12.237 8.177C11.9088 7.84908 11.4639 7.66487 11 7.66487C10.5361 7.66487 10.0912 7.84908 9.763 8.177L8.177 9.763C8.15378 9.78628 8.12619 9.80475 8.09582 9.81736C8.06544 9.82996 8.03288 9.83645 8 9.83645C7.96712 9.83645 7.93456 9.82996 7.90418 9.81736C7.87381 9.80475 7.84622 9.78628 7.823 9.763L5.53 7.47Z" fill="black"/>
</svg>
