<svg width="66" height="66" viewBox="0 0 66 66" fill="none" xmlns="http://www.w3.org/2000/svg">
<path d="M63.2567 46.75C63.986 46.75 64.6855 47.0397 65.2012 47.5555C65.7169 48.0712 66.0067 48.7707 66.0067 49.5C66.0076 52.2752 64.9594 54.9481 63.0724 56.983C61.1854 59.0179 58.599 60.2644 55.8317 60.4725L55.0067 60.5H44.0067V63.25C44.008 63.7544 43.8705 64.2494 43.6094 64.6809C43.3482 65.1124 42.9734 65.4638 42.526 65.6966C42.0786 65.9294 41.5757 66.0346 41.0725 66.0009C40.5692 65.9671 40.085 65.7955 39.6727 65.505L39.3097 65.197L33.8097 59.697C33.355 59.2413 33.0745 58.6405 33.0172 57.9993C32.96 57.3581 33.1294 56.7171 33.4962 56.188L33.8097 55.803L39.3097 50.303C39.6657 49.9456 40.1132 49.693 40.6031 49.5728C41.0931 49.4527 41.6067 49.4696 42.0877 49.6218C42.5686 49.774 42.9985 50.0556 43.3302 50.4357C43.6618 50.8158 43.8826 51.2798 43.9682 51.777L44.0067 52.25V55H55.0067C56.4654 55 57.8643 54.4205 58.8958 53.3891C59.9272 52.3576 60.5067 50.9587 60.5067 49.5C60.5067 48.7707 60.7964 48.0712 61.3121 47.5555C61.8279 47.0397 62.5273 46.75 63.2567 46.75ZM24.7567 8.99363e-07C28.2393 -0.000667811 31.6829 0.733663 34.8623 2.15499C38.0417 3.57632 40.8854 5.65264 43.2074 8.24823C45.5294 10.8438 47.2775 13.9002 48.3374 17.2177C49.3973 20.5351 49.7451 24.0389 49.3582 27.5H44.0067C39.798 27.4998 35.7483 29.1078 32.6862 31.9951C29.6241 34.8823 27.7811 38.8306 27.5342 43.032L27.5067 44V49.346C24.1609 49.721 20.7737 49.4094 17.5525 48.4303C14.3312 47.4513 11.3436 45.8253 8.77239 43.6518C6.20117 41.4784 4.10041 38.8032 2.59865 35.7899C1.09688 32.7767 0.22568 29.4887 0.0383455 26.1272C-0.148989 22.7656 0.35148 19.4012 1.50914 16.2397C2.66679 13.0783 4.45729 10.1862 6.77109 7.74055C9.0849 5.29487 11.8734 3.34698 14.9659 2.01604C18.0584 0.685094 21.3899 -0.000906677 24.7567 8.99363e-07ZM59.3407 27.995L59.7037 28.303L65.2037 33.803C65.6584 34.2587 65.9388 34.8595 65.9961 35.5007C66.0534 36.1419 65.8839 36.7829 65.5172 37.312L65.2037 37.697L59.7037 43.197C59.3477 43.5544 58.9002 43.807 58.4102 43.9272C57.9202 44.0473 57.4067 44.0304 56.9257 43.8782C56.4447 43.726 56.0149 43.4444 55.6832 43.0643C55.3515 42.6842 55.1308 42.2202 55.0452 41.723L55.0067 41.25V38.5H44.0067C42.548 38.5 41.149 39.0795 40.1176 40.1109C39.0861 41.1424 38.5067 42.5413 38.5067 44C38.5067 44.7293 38.2169 45.4288 37.7012 45.9445C37.1855 46.4603 36.486 46.75 35.7567 46.75C35.0273 46.75 34.3279 46.4603 33.8121 45.9445C33.2964 45.4288 33.0067 44.7293 33.0067 44C33.0058 41.2248 34.0539 38.5519 35.9409 36.517C37.8279 34.4821 40.4143 33.2356 43.1817 33.0275L44.0067 33H55.0067V30.25C55.0067 28.127 57.2342 26.9225 58.9502 27.764L59.3352 28.0005L59.3407 27.995ZM24.7567 11L24.2617 11.044C23.7122 11.1444 23.2063 11.4097 22.8114 11.8047C22.4164 12.1997 22.1511 12.7055 22.0507 13.255L22.0067 13.75V22H13.7567L13.2617 22.044C12.6276 22.1588 12.054 22.4926 11.641 22.9872C11.2279 23.4817 11.0016 24.1056 11.0016 24.75C11.0016 25.3944 11.2279 26.0183 11.641 26.5128C12.054 27.0074 12.6276 27.3412 13.2617 27.456L13.7567 27.5H24.7567L25.2517 27.456C25.8011 27.3556 26.307 27.0903 26.702 26.6953C27.097 26.3004 27.3623 25.7945 27.4627 25.245L27.5067 24.75V13.75L27.4627 13.255C27.3468 12.6219 27.0126 12.0494 26.5181 11.6374C26.0236 11.2253 25.4003 10.9998 24.7567 11Z" fill="black"/>
</svg>
