<svg width="63" height="63" viewBox="0 0 63 63" fill="none" xmlns="http://www.w3.org/2000/svg">
<path fill-rule="evenodd" clip-rule="evenodd" d="M4.6116 4.6116C0 9.2295 0 16.6509 0 31.5C0 46.3491 0 53.7737 4.6116 58.3853C9.2295 63 16.6509 63 31.5 63C46.3491 63 53.7737 63 58.3853 58.3853C63 53.7768 63 46.3491 63 31.5C63 16.6509 63 9.22635 58.3853 4.6116C53.7768 0 46.3491 0 31.5 0C16.6509 0 9.22635 0 4.6116 4.6116ZM49.0644 26.712C49.4478 26.2289 49.627 25.615 49.5638 25.0014C49.5006 24.3879 49.1999 23.8235 48.7261 23.4286C48.2523 23.0338 47.6429 22.8399 47.0281 22.8884C46.4132 22.9368 45.8417 23.2238 45.4356 23.688L39.7751 30.4794C38.6096 31.8811 37.8882 32.7348 37.2991 33.2672C37.1451 33.4166 36.9725 33.5457 36.7857 33.6514L36.7511 33.6672L36.7259 33.6546L36.7164 33.6514C36.5285 33.546 36.3549 33.4168 36.1998 33.2672C35.6107 32.7317 34.8926 31.8811 33.7239 30.4794L32.8041 29.3769C31.7709 28.1327 30.8353 27.0144 29.9659 26.2269C29.0178 25.3701 27.824 24.6078 26.249 24.6078C24.674 24.6078 23.4833 25.3701 22.532 26.2269C21.6626 27.0144 20.7302 28.1327 19.697 29.3769L13.9324 36.288C13.7339 36.5265 13.5842 36.8017 13.4921 37.098C13.3999 37.3943 13.367 37.7059 13.3952 38.0149C13.4522 38.6391 13.7548 39.215 14.2364 39.616C14.7181 40.017 15.3393 40.2102 15.9634 40.1532C16.5875 40.0962 17.1634 39.7936 17.5644 39.312L23.225 32.5206C24.3905 31.1189 25.1118 30.2652 25.7009 29.7329C25.8549 29.5834 26.0275 29.4543 26.2143 29.3486L26.2364 29.3391L26.249 29.3328L26.2836 29.3486C26.4715 29.454 26.6451 29.5832 26.8002 29.7329C27.3893 30.2684 28.1074 31.1189 29.2761 32.5206L30.1959 33.6231C31.2323 34.8674 32.1647 35.9856 33.0341 36.7731C33.9822 37.6299 35.1761 38.3922 36.7511 38.3922C38.3261 38.3922 39.5168 37.6299 40.4681 36.7731C41.3375 35.9856 42.2699 34.8674 43.3031 33.6231L49.0644 26.712Z" fill="black"/>
</svg>
