<svg id="Calque_1" data-name="Calque 1" xmlns="http://www.w3.org/2000/svg" viewBox="0 0 1060 1070.03"><path d="M427.27,238a15.31,15.31,0,0,1-11.08,22.49h0c-22.66.22-44.72.3-67.48.2-11.91-.05-16.59,2.46-16.57,15.53.17,97-.57,194-.7,291q-.15,107.23.57,214.48c.22,34.34,17.05,57.55,48.57,67.75,6,1.94,12.71,2.38,19.1,2.39q104.24.23,208.48.07h20.4c-5.29,6-7.95,9.38-11,12.37-66.85,65.35-134,130.43-200.42,196.17-11.63,11.5-23,15.84-39.63,14.29-121.15-11.24-205-73.6-250.18-185.36-12.6-31.18-19.29-66.79-19.73-100.48-2.21-169.46-1.45-338.95-1.73-508.44v-.17a19.62,19.62,0,0,0-19.7-19.58c-21,.09-41.1.21-61.21-.35h-.2c-12.08-.48-19-14.65-11.87-24.42.29-.41.61-.81.93-1.19Q108.16,125,203.21,15.91c12.72-14.66,21.37-14.58,34.18.31Z" transform="translate(-10 -4.98)" fill="#f0f0f0"/><path d="M454.54,1072.26c12.84-13.27,23.92-25.12,35.42-36.54,58.15-57.79,116.55-115.34,174.48-173.36,7.32-7.33,14.48-10.92,24.86-10.26,13,.83,26,.27,39,.25,34.7-.05,58.44-24.16,61.18-62.08,2.35-32.6-21.66-63.85-52.75-68-12.8-1.71-25.75-2.3-42.57-3.74,53.45-60.75,71.34-129.62,55.27-210.35,20.23,3.52,38.42,5.39,55.92,9.94,110.1,28.59,191.71,118.14,206,231.87,20.65,165-86.69,292.39-227,319.5a193.6,193.6,0,0,1-35.69,3.58q-140.22.56-280.46.39C464.37,1073.46,460.57,1072.81,454.54,1072.26Z" transform="translate(-10 -4.98)" fill="#bcd367"/><path d="M652.78,239c.25-.5.4-.78.4-.78L847.12,13.77c11.66-11.62,21-11.66,31.46.55l188.9,222.75c6.16,9.08.39,21.91-10.49,23.23l-65.76.24c-12-.46-15.14,3.81-15.11,15.43.32,98.43.07,196.87-.06,295.31,0,4.82-.43,9.63-.89,19.12C913.79,521.19,839.62,485,748.4,478.65c0-7.21,0-13.08,0-19-.07-60.46-.48-120.92,0-181.38.11-13.62-3.91-18.44-17.88-17.79-22.43,1-45,.57-67.43-.22h0A14.94,14.94,0,0,1,652.78,239Z" transform="translate(-10 -4.98)" fill="#bcd367"/><path d="M540.81,384.65c-103.09,1.08-184.8,82-178.71,187.72,5.69,98.78,86.25,170.81,186,168.37,95.87-2.34,176.24-83.93,174.6-178.85C721.23,467,649.83,383.51,540.81,384.65ZM494.22,562.11c.51.31,1,.65,1.52,1-.5-.36-1-.7-1.52-1Z" transform="translate(-10 -4.98)" fill="#f0f0f0"/><path d="M535.17,521.41c-.32-.13-.65-.23-1-.35a35,35,0,0,0,12.58-10.61,29.8,29.8,0,0,0,5.53-17.71q0-15-12.93-24.64t-40.09-9.64H429.23V589.6H503q27.16,0,41.31-9.56t14.14-26.6q0-11.43-6.09-19.58T535.17,521.41Zm-41.87-32q7.49,0,11,2.43a9.35,9.35,0,0,1,0,14.52q-3.48,2.54-11,2.53H472.69V489.37Zm16.95,66.69q-3.64,2.63-11,2.63h-26.6V538.08h26.6q7.31,0,11,2.62a9.89,9.89,0,0,1,0,15.36Z" transform="translate(-10 -4.98)" fill="#132318"/><path d="M614.52,627.17a31.19,31.19,0,0,1-15.83,4A33.51,33.51,0,0,1,586.14,629a26.45,26.45,0,0,1-9.65-6.56A30.49,30.49,0,0,1,570.22,612a42.14,42.14,0,0,1,0-27.17,30.63,30.63,0,0,1,6.27-10.4,26.43,26.43,0,0,1,9.65-6.55,33.51,33.51,0,0,1,12.55-2.25,31.29,31.29,0,0,1,15.83,4A45.29,45.29,0,0,1,627.36,581l27.91-24.92a63.44,63.44,0,0,0-24.63-19.48q-14.89-6.75-34.19-6.75a83.2,83.2,0,0,0-29.14,5A68.69,68.69,0,0,0,544.08,549a64.41,64.41,0,0,0-15.26,21.74,73.37,73.37,0,0,0,0,55.45,64.37,64.37,0,0,0,15.26,21.73A68.55,68.55,0,0,0,567.31,662a83.43,83.43,0,0,0,29.14,5q19.29,0,34.19-6.84a64.91,64.91,0,0,0,24.63-19.39l-27.91-24.92A45,45,0,0,1,614.52,627.17Z" transform="translate(-10 -4.98)" fill="#132318"/></svg>