<svg width="51" height="54" viewBox="0 0 51 54" fill="none" xmlns="http://www.w3.org/2000/svg">
<path fill-rule="evenodd" clip-rule="evenodd" d="M25.5554 0C18.8304 0 12.7038 2.23819 9.07849 4.06684C8.75095 4.23185 8.44524 4.39287 8.16137 4.54988C7.59859 4.8589 7.11919 5.14693 6.73804 5.40045L10.8621 11.518L12.8036 12.2965C20.3907 16.1533 30.5654 16.1533 38.154 12.2965L40.3574 11.1444L44.2567 5.40045C43.4481 4.87107 42.6083 4.39165 41.742 3.96483C38.1346 2.15568 32.154 0 25.5569 0M15.9658 6.92458C14.5058 6.64773 13.0635 6.28304 11.6467 5.83249C15.0428 4.31286 20.1033 2.70023 25.5569 2.70023C29.3341 2.70023 32.9058 3.47429 35.8597 4.45537C32.3981 4.94591 28.7043 5.77848 25.1847 6.80307C22.4155 7.61013 19.1788 7.52313 15.9658 6.92458ZM39.7277 14.5212L39.3614 14.7072C31.015 18.9496 19.944 18.9496 11.5976 14.7072L11.2507 14.5302C-1.28976 28.3929 -10.863 54 25.5554 54C61.9738 54 52.1684 27.9173 39.7277 14.5212ZM24.0085 27.0022C23.2188 27.0022 22.4614 27.3183 21.903 27.881C21.3446 28.4437 21.0309 29.2068 21.0309 30.0025C21.0309 30.7982 21.3446 31.5613 21.903 32.124C22.4614 32.6867 23.2188 33.0027 24.0085 33.0027V27.0022ZM26.9862 24.002V22.5019H24.0085V24.002C22.4291 24.002 20.9143 24.6342 19.7975 25.7595C18.6806 26.8848 18.0532 28.4111 18.0532 30.0025C18.0532 31.5939 18.6806 33.1202 19.7975 34.2455C20.9143 35.3708 22.4291 36.003 24.0085 36.003V42.0035C22.7132 42.0035 21.61 41.1709 21.1991 40.0038C21.1381 39.8129 21.0398 39.6362 20.9099 39.4842C20.7799 39.3323 20.6211 39.2081 20.4427 39.119C20.2643 39.03 20.07 38.9779 19.8713 38.9658C19.6726 38.9538 19.4735 38.982 19.2858 39.0488C19.0981 39.1156 18.9256 39.2197 18.7785 39.3549C18.6315 39.49 18.5128 39.6535 18.4295 39.8357C18.3462 40.0179 18.3 40.2151 18.2937 40.4156C18.2874 40.616 18.321 40.8158 18.3926 41.0029C18.8031 42.1731 19.5637 43.1862 20.5694 43.9028C21.5752 44.6193 22.7767 45.0039 24.0085 45.0037V46.5039H26.9862V45.0037C28.5657 45.0037 30.0804 44.3716 31.1973 43.2462C32.3141 42.1209 32.9415 40.5947 32.9415 39.0032C32.9415 37.4118 32.3141 35.8856 31.1973 34.7603C30.0804 33.6349 28.5657 33.0027 26.9862 33.0027V27.0022C28.2815 27.0022 29.3847 27.8348 29.7956 29.0019C29.8566 29.1929 29.955 29.3695 30.0849 29.5215C30.2148 29.6735 30.3736 29.7977 30.552 29.8867C30.7304 29.9758 30.9247 30.0278 31.1234 30.0399C31.3221 30.052 31.5212 30.0238 31.7089 29.9569C31.8966 29.8901 32.0691 29.786 32.2162 29.6509C32.3633 29.5157 32.482 29.3522 32.5652 29.17C32.6485 28.9878 32.6947 28.7907 32.701 28.5902C32.7073 28.3897 32.6737 28.19 32.6021 28.0028C32.1916 26.8327 31.4311 25.8195 30.4253 25.103C29.4195 24.3865 28.218 24.0018 26.9862 24.002ZM26.9862 36.003V42.0035C27.7759 42.0035 28.5333 41.6874 29.0917 41.1247C29.6502 40.5621 29.9639 39.799 29.9639 39.0032C29.9639 38.2075 29.6502 37.4444 29.0917 36.8818C28.5333 36.3191 27.7759 36.003 26.9862 36.003Z" fill="black"/>
</svg>
