<svg width="65" height="65" viewBox="0 0 65 65" fill="none" xmlns="http://www.w3.org/2000/svg">
<path d="M0 47.9359C0 50.7372 1.11484 53.4237 3.09926 55.4045C5.08368 57.3853 7.77514 58.4981 10.5815 58.4981H26.5841L27.7431 53.8735C28.2706 51.7675 29.3613 49.8436 30.9013 48.3097L50.1174 29.1255C51.2202 28.023 52.5517 27.1752 54.0182 26.6418C55.4847 26.1084 57.0505 25.9023 58.6054 26.0381V10.5622C58.6054 7.76089 57.4906 5.07437 55.5062 3.09358C53.5217 1.11279 50.8303 0 48.0239 0H26.0468V15.437C26.0468 16.824 25.7731 18.1975 25.2414 19.4789C24.7096 20.7604 23.9302 21.9248 22.9476 22.9056C21.965 23.8863 20.7985 24.6643 19.5147 25.1951C18.2309 25.7259 16.8549 25.9991 15.4653 25.9991H0V47.9359ZM21.1631 1.42995L1.43258 21.1243H15.4653C16.9765 21.1243 18.4257 20.5251 19.4942 19.4585C20.5628 18.3919 21.1631 16.9454 21.1631 15.437V1.42995ZM52.4193 31.4265L33.2 50.6073C32.082 51.7269 31.2879 53.1271 30.9013 54.6599L29.4101 60.6105C29.2618 61.2025 29.2697 61.8228 29.433 62.4109C29.5963 62.9991 29.9095 63.5349 30.342 63.9663C30.7745 64.3976 31.3115 64.7098 31.9008 64.8724C32.4902 65.0349 33.1116 65.0423 33.7046 64.8939L39.6628 63.4087C41.2 63.0224 42.604 62.2285 43.7261 61.111L62.9422 41.9301C64.2839 40.5264 65.0223 38.6544 64.9995 36.7144C64.9767 34.7744 64.1944 32.9203 62.82 31.5484C61.4456 30.1765 59.5881 29.3957 57.6445 29.373C55.701 29.3502 53.8256 30.0872 52.4193 31.4265Z" fill="black"/>
</svg>
