<svg width="79" height="142" viewBox="0 0 79 142" fill="none" xmlns="http://www.w3.org/2000/svg">
<path d="M76.4668 96.8096C77.2009 97.5413 77.7835 98.4106 78.1809 99.3678C78.5784 100.325 78.783 101.351 78.783 102.388C78.783 103.424 78.5784 104.45 78.1809 105.408C77.7835 106.365 77.2009 107.234 76.4668 107.966L44.9668 139.466C44.2352 140.2 43.3658 140.783 42.4086 141.18C41.4514 141.578 40.4251 141.782 39.3887 141.782C38.3522 141.782 37.3259 141.578 36.3687 141.18C35.4115 140.783 34.5421 140.2 33.8105 139.466L2.31053 107.966C0.831123 106.486 -3.11763e-08 104.48 0 102.388C3.11762e-08 100.296 0.831123 98.2891 2.31053 96.8096C3.78994 95.3302 5.79646 94.4991 7.88866 94.4991C9.98086 94.4991 11.9874 95.3302 13.4668 96.8096L39.3952 122.725L65.3237 96.79C66.0563 96.0591 66.9259 95.4797 67.8826 95.0851C68.8393 94.6905 69.8644 94.4883 70.8993 94.4902C71.9342 94.492 72.9586 94.6978 73.9139 95.0958C74.8692 95.4938 75.7367 96.0762 76.4668 96.8096ZM13.4668 44.9659L39.3952 19.0375L65.3237 44.9725C66.8031 46.4519 68.8096 47.283 70.9018 47.283C72.994 47.283 75.0005 46.4519 76.4799 44.9725C77.9593 43.493 78.7904 41.4865 78.7904 39.3943C78.7904 37.3021 77.9593 35.2956 76.4799 33.8162L44.9799 2.31621C44.2483 1.58205 43.3789 0.999534 42.4217 0.602067C41.4645 0.204599 40.4382 0 39.4018 0C38.3653 0 37.3391 0.204599 36.3818 0.602067C35.4246 0.999534 34.5553 1.58205 33.8237 2.31621L2.32366 33.8162C0.844251 35.2956 0.0131228 37.3021 0.0131228 39.3943C0.0131228 41.4865 0.844251 43.493 2.32366 44.9725C3.80307 46.4519 5.80958 47.283 7.90179 47.283C9.99399 47.283 12.0005 46.4519 13.4799 44.9725L13.4668 44.9659Z" fill="black"/>
</svg>
