<svg width="24" height="24" viewBox="0 0 24 24" fill="none" xmlns="http://www.w3.org/2000/svg">
<path d="M24 3.5C24 2.57174 23.6313 1.6815 22.9749 1.02513C22.3185 0.368749 21.4283 0 20.5 0H3.5C2.57336 0.0052502 1.68617 0.375685 1.03093 1.03093C0.375685 1.68617 0.0052502 2.57336 0 3.5L0 16.5C0.0331444 17.4611 0.371987 18.3867 0.967266 19.142C1.56255 19.8973 2.38323 20.4431 3.31 20.7C15.44 23.53 14.7 23.4 15.24 23.4C15.8783 23.4202 16.5028 23.2108 17 22.81C17.333 22.5277 17.5965 22.1725 17.7699 21.7718C17.9433 21.3712 18.0221 20.936 18 20.5V10.81C18.0001 9.87966 17.6964 8.97474 17.135 8.23286C16.5737 7.49098 15.7853 6.95274 14.89 6.7L4.06 3.7C3.86772 3.64828 3.70386 3.5223 3.60446 3.34977C3.50507 3.17723 3.47828 2.97228 3.53 2.78C3.58172 2.58772 3.7077 2.42386 3.88023 2.32446C4.05277 2.22507 4.25772 2.19828 4.45 2.25C8.18 3.25 7.97 3.25 8.02 3.25H20.5C20.6989 3.25 20.8897 3.32902 21.0303 3.46967C21.171 3.61032 21.25 3.80109 21.25 4C21.25 4.19891 21.171 4.38968 21.0303 4.53033C20.8897 4.67098 20.6989 4.75 20.5 4.75H15.26C15.2003 4.75196 15.1433 4.77522 15.0993 4.81558C15.0553 4.85593 15.0271 4.91071 15.02 4.97C15.0104 5.03063 15.0234 5.09268 15.0566 5.14431C15.0898 5.19595 15.1409 5.23357 15.2 5.25C16.3775 5.55172 17.4284 6.22073 18.2 7.16C18.2243 7.18922 18.2549 7.21251 18.2896 7.2281C18.3243 7.2437 18.362 7.25119 18.4 7.25H20.5C20.6989 7.25 20.8897 7.32902 21.0303 7.46967C21.171 7.61032 21.25 7.80109 21.25 8C21.25 8.19891 21.171 8.38968 21.0303 8.53033C20.8897 8.67098 20.6989 8.75 20.5 8.75H19.5C19.4602 8.75029 19.421 8.7605 19.3861 8.7797C19.3512 8.79891 19.3216 8.8265 19.3 8.86C19.2832 8.89424 19.2745 8.93187 19.2745 8.97C19.2745 9.00813 19.2832 9.04576 19.3 9.08C19.4835 9.6384 19.578 10.2222 19.58 10.81V17.75C19.58 17.8163 19.6063 17.8799 19.6532 17.9268C19.7001 17.9737 19.7637 18 19.83 18H20.58C21.4943 17.9791 22.3641 17.6011 23.0033 16.947C23.6425 16.2929 24.0002 15.4146 24 14.5V3.5ZM15.5 15C15.5 15.3956 15.3827 15.7822 15.1629 16.1111C14.9432 16.44 14.6308 16.6964 14.2654 16.8478C13.8999 16.9991 13.4978 17.0387 13.1098 16.9616C12.7219 16.8844 12.3655 16.6939 12.0858 16.4142C11.8061 16.1345 11.6156 15.7781 11.5384 15.3902C11.4613 15.0022 11.5009 14.6001 11.6522 14.2346C11.8036 13.8692 12.06 13.5568 12.3889 13.3371C12.7178 13.1173 13.1044 13 13.5 13C14.0304 13 14.5391 13.2107 14.9142 13.5858C15.2893 13.9609 15.5 14.4696 15.5 15Z" fill="black"/>
</svg>
